# xmcd CD database file
#
# Track frame offsets:
#	150
#	63604
#	100689
#	150769
#	189807
#
# Disc length: 3201 seconds
#
# Revision: 0
# Processed by: cddbd v1.5.2PL0 Copyright (c) Steve Scherf et al.
# Submitted via: CDex 1.70beta2
#
DISCID=2d0c7f05
DTITLE=Kamasi Washington - The Epic Vol.3: The Historic Repetition
DYEAR=2015
DGENRE=Jazz
TTITLE0=Re Run Home
TTITLE1=Cherokee
TTITLE2=Clair de Lune
TTITLE3=Malcolm's Theme
TTITLE4=The Message
EXTD=YEAR: 2015
EXTT0=
EXTT1=
EXTT2=
EXTT3=
EXTT4=
PLAYORDER=
